<mxfile host="app.diagrams.net" agent="Mozilla/5.0 (Windows NT 10.0; Win64; x64) AppleWebKit/537.36 (KHTML, like Gecko) Chrome/136.0.0.0 Safari/537.36 Edg/136.0.0.0" version="27.0.5">
  <diagram name="第 1 页" id="K5ihVL2JLFyC_h7vm4MY">
    <mxGraphModel dx="1932" dy="1467" grid="1" gridSize="10" guides="1" tooltips="1" connect="1" arrows="1" fold="1" page="1" pageScale="1" pageWidth="1169" pageHeight="827" math="0" shadow="0">
      <root>
        <mxCell id="0" />
        <mxCell id="1" parent="0" />
        <mxCell id="6hHOB6_-6UUf0mLMSbDo-1" value="" style="rounded=0;whiteSpace=wrap;html=1;strokeWidth=3;fillColor=none;" vertex="1" parent="1">
          <mxGeometry x="-140" y="-150" width="710" height="590" as="geometry" />
        </mxCell>
        <mxCell id="6hHOB6_-6UUf0mLMSbDo-2" value="阶段一：语音输入与识别" style="rounded=0;whiteSpace=wrap;html=1;strokeWidth=2;" vertex="1" parent="1">
          <mxGeometry x="-80" y="20" width="160" height="30" as="geometry" />
        </mxCell>
        <mxCell id="6hHOB6_-6UUf0mLMSbDo-22" value="" style="edgeStyle=none;curved=1;rounded=0;orthogonalLoop=1;jettySize=auto;html=1;fontFamily=Helvetica;fontSize=12;fontColor=default;startSize=8;endSize=8;entryX=0.451;entryY=-0.012;entryDx=0;entryDy=0;entryPerimeter=0;" edge="1" parent="1" source="6hHOB6_-6UUf0mLMSbDo-5" target="6hHOB6_-6UUf0mLMSbDo-6">
          <mxGeometry relative="1" as="geometry" />
        </mxCell>
        <mxCell id="6hHOB6_-6UUf0mLMSbDo-5" value="自然语言理解（NLU）处理" style="rounded=0;whiteSpace=wrap;html=1;strokeWidth=2;" vertex="1" parent="1">
          <mxGeometry x="120" y="120" width="90" height="40" as="geometry" />
        </mxCell>
        <mxCell id="6hHOB6_-6UUf0mLMSbDo-23" value="" style="edgeStyle=none;curved=1;rounded=0;orthogonalLoop=1;jettySize=auto;html=1;fontFamily=Helvetica;fontSize=12;fontColor=default;startSize=8;endSize=8;entryX=0.56;entryY=0.031;entryDx=0;entryDy=0;entryPerimeter=0;" edge="1" parent="1">
          <mxGeometry relative="1" as="geometry">
            <mxPoint x="164.74398642095053" y="220" as="sourcePoint" />
            <mxPoint x="164.9500000000001" y="241.24" as="targetPoint" />
          </mxGeometry>
        </mxCell>
        <mxCell id="6hHOB6_-6UUf0mLMSbDo-6" value="意图识别模型判断用户需求" style="rounded=0;whiteSpace=wrap;html=1;strokeWidth=2;" vertex="1" parent="1">
          <mxGeometry x="120" y="180" width="100" height="40" as="geometry" />
        </mxCell>
        <mxCell id="6hHOB6_-6UUf0mLMSbDo-16" value="" style="edgeStyle=none;curved=1;rounded=0;orthogonalLoop=1;jettySize=auto;html=1;fontFamily=Helvetica;fontSize=12;fontColor=default;startSize=8;endSize=8;entryX=0.413;entryY=-0.012;entryDx=0;entryDy=0;entryPerimeter=0;exitX=0.415;exitY=1.048;exitDx=0;exitDy=0;exitPerimeter=0;" edge="1" parent="1" source="6hHOB6_-6UUf0mLMSbDo-7" target="6hHOB6_-6UUf0mLMSbDo-8">
          <mxGeometry relative="1" as="geometry">
            <mxPoint x="165" y="10" as="targetPoint" />
          </mxGeometry>
        </mxCell>
        <mxCell id="6hHOB6_-6UUf0mLMSbDo-7" value="用户文字/语音输入" style="rounded=0;whiteSpace=wrap;html=1;strokeWidth=2;" vertex="1" parent="1">
          <mxGeometry x="120" y="-30" width="120" height="20" as="geometry" />
        </mxCell>
        <mxCell id="6hHOB6_-6UUf0mLMSbDo-17" value="" style="edgeStyle=none;curved=1;rounded=0;orthogonalLoop=1;jettySize=auto;html=1;fontFamily=Helvetica;fontSize=12;fontColor=default;startSize=8;endSize=8;entryX=0.856;entryY=0.001;entryDx=0;entryDy=0;entryPerimeter=0;" edge="1" parent="1">
          <mxGeometry relative="1" as="geometry">
            <mxPoint x="164.85575342465756" y="39.999999999999886" as="sourcePoint" />
            <mxPoint x="164.80999999999983" y="60.039999999999964" as="targetPoint" />
          </mxGeometry>
        </mxCell>
        <mxCell id="6hHOB6_-6UUf0mLMSbDo-8" value="调用腾讯云ASR接口" style="rounded=0;whiteSpace=wrap;html=1;strokeWidth=2;" vertex="1" parent="1">
          <mxGeometry x="120" y="10" width="120" height="30" as="geometry" />
        </mxCell>
        <mxCell id="6hHOB6_-6UUf0mLMSbDo-20" value="" style="edgeStyle=none;curved=1;rounded=0;orthogonalLoop=1;jettySize=auto;html=1;fontFamily=Helvetica;fontSize=12;fontColor=default;startSize=8;endSize=8;entryX=0.384;entryY=-0.02;entryDx=0;entryDy=0;entryPerimeter=0;" edge="1" parent="1">
          <mxGeometry relative="1" as="geometry">
            <mxPoint x="164.99999999999977" y="100.00000000000011" as="sourcePoint" />
            <mxPoint x="164.80999999999995" y="119.20000000000005" as="targetPoint" />
          </mxGeometry>
        </mxCell>
        <mxCell id="6hHOB6_-6UUf0mLMSbDo-9" value="实时语音转标准化文本" style="rounded=0;whiteSpace=wrap;html=1;strokeWidth=2;" vertex="1" parent="1">
          <mxGeometry x="120" y="60" width="70" height="40" as="geometry" />
        </mxCell>
        <mxCell id="6hHOB6_-6UUf0mLMSbDo-12" value="" style="shape=curlyBracket;whiteSpace=wrap;html=1;rounded=1;labelPosition=left;verticalLabelPosition=middle;align=right;verticalAlign=middle;strokeWidth=2;" vertex="1" parent="1">
          <mxGeometry x="90" y="-25" width="20" height="125" as="geometry" />
        </mxCell>
        <mxCell id="6hHOB6_-6UUf0mLMSbDo-13" value="关键字抽取模型提取核心信息" style="rounded=0;whiteSpace=wrap;html=1;strokeWidth=2;" vertex="1" parent="1">
          <mxGeometry x="120" y="240" width="90" height="40" as="geometry" />
        </mxCell>
        <mxCell id="6hHOB6_-6UUf0mLMSbDo-14" value="阶段二：语义解析与意图识别" style="rounded=0;whiteSpace=wrap;html=1;strokeWidth=2;" vertex="1" parent="1">
          <mxGeometry x="-40" y="175" width="120" height="40" as="geometry" />
        </mxCell>
        <mxCell id="6hHOB6_-6UUf0mLMSbDo-15" value="" style="shape=curlyBracket;whiteSpace=wrap;html=1;rounded=1;labelPosition=left;verticalLabelPosition=middle;align=right;verticalAlign=middle;strokeWidth=2;" vertex="1" parent="1">
          <mxGeometry x="90" y="120" width="20" height="160" as="geometry" />
        </mxCell>
      </root>
    </mxGraphModel>
  </diagram>
</mxfile>
